<svg xmlns="http://www.w3.org/2000/svg" width="24" height="24" viewBox="0 0 24 24">
    <defs>
        <style>
            .cls-1,.cls-2{fill:none}.cls-1{stroke:#22c264}
        </style>
    </defs>
    <g id="ic_phone" transform="translate(-6 -275)">
        <path id="Path" d="M15.111 11.111a10.1 10.1 0 0 1-3.173-.507.907.907 0 0 0-.907.213l-1.955 1.956a13.374 13.374 0 0 1-5.858-5.857l1.955-1.965a.853.853 0 0 0 .227-.889A10.1 10.1 0 0 1 4.889.889.892.892 0 0 0 4 0H.889A.892.892 0 0 0 0 .889 15.11 15.11 0 0 0 15.111 16a.892.892 0 0 0 .889-.889V12a.892.892 0 0 0-.889-.889z" class="cls-1" transform="translate(10 279)"/>
        <path id="Rectangle_1560" d="M0 0h24v24H0z" class="cls-2" data-name="Rectangle 1560" transform="translate(6 275)"/>
    </g>
</svg>
