<svg xmlns="http://www.w3.org/2000/svg" viewBox="0 0 10 10"><defs><style>.a{fill:#dda24a;}</style></defs><g transform="translate(-30 -383)"><path class="a" d="M5,11a5,5,0,1,1,5-5A5.005,5.005,0,0,1,5,11ZM5,7.892H5l1.644.864a.294.294,0,0,0,.147.044A.129.129,0,0,0,6.9,8.747a.212.212,0,0,0,.039-.13.509.509,0,0,0,0-.074L6.622,6.712l1.33-1.3a.265.265,0,0,0,.095-.175c0-.09-.069-.147-.205-.168L6,4.8,5.179,3.137c-.046-.1-.106-.149-.179-.149s-.133.049-.18.149L4,4.8l-1.84.268c-.136.022-.205.078-.205.168a.279.279,0,0,0,.092.175l1.334,1.3L3.062,8.544a.489.489,0,0,0-.007.074.217.217,0,0,0,.038.13.136.136,0,0,0,.116.053.3.3,0,0,0,.146-.044L5,7.892Z" transform="translate(30 382)"/></g></svg>